<svg width="168" height="52" viewBox="0 0 168 52" fill="none" xmlns="http://www.w3.org/2000/svg">
<path d="M167.067 46.0029C167.067 48.774 164.928 51.0187 162.283 51.0187H5.72362C3.07955 51.0187 0.93335 48.774 0.93335 46.0029V6.00333C0.93335 3.23349 3.07955 0.980957 5.72362 0.980957H162.281C164.928 0.980957 167.065 3.23349 167.065 6.00333L167.067 46.0029Z" fill="black"/>
<path d="M161.778 1.04162C164.659 1.04162 167.003 3.4905 167.003 6.5V45.5C167.003 48.5095 164.659 50.9584 161.778 50.9584H6.22222C3.34133 50.9584 0.997111 48.5095 0.997111 45.5V6.5C0.997111 3.4905 3.34133 1.04162 6.22222 1.04162H161.778ZM161.778 2.74817e-06H6.22222C2.80156 2.74817e-06 0 2.92663 0 6.5V45.5C0 49.0734 2.80156 52 6.22222 52H161.778C165.198 52 168 49.0734 168 45.5V6.5C168 2.92663 165.198 2.74817e-06 161.778 2.74817e-06Z" fill="#A6A6A6"/>
<path d="M66.7584 40.9552H63.9323L62.3842 35.8735H57.0032L55.5286 40.9552H52.7771L58.1083 23.6548H61.4011L66.7584 40.9552ZM61.9175 33.7415L60.5175 29.224C60.3695 28.7625 60.0919 27.6757 59.6825 25.9649H59.6327C59.4697 26.7007 59.2071 27.7875 58.8463 29.224L57.4711 33.7415H61.9175Z" fill="white"/>
<path d="M80.4688 34.5645C80.4688 36.6861 79.92 38.3631 78.8224 39.5942C77.8393 40.6901 76.6185 41.2374 75.1612 41.2374C73.5882 41.2374 72.4583 40.6472 71.7701 39.4668H71.7203V46.0383H69.0672V32.5872C69.0672 31.2534 69.0336 29.8845 68.9689 28.4805H71.3022L71.4503 30.4578H71.5001C72.3849 28.968 73.7276 28.2244 75.5296 28.2244C76.9383 28.2244 78.1143 28.8055 79.0551 29.969C79.9984 31.1338 80.4688 32.6652 80.4688 34.5645ZM77.7659 34.6659C77.7659 33.4517 77.5045 32.4507 76.9794 31.6629C76.4057 30.8413 75.6354 30.4305 74.6697 30.4305C74.0151 30.4305 73.4202 30.6593 72.8889 31.1104C72.3562 31.5654 72.0078 32.1595 71.8448 32.8953C71.7626 33.2385 71.7216 33.5193 71.7216 33.7403V35.8203C71.7216 36.7277 71.9879 37.4934 72.5205 38.1187C73.0531 38.744 73.745 39.056 74.5962 39.056C75.5955 39.056 76.3733 38.653 76.9296 37.8496C77.4871 37.0449 77.7659 35.9841 77.7659 34.6659Z" fill="white"/>
<path d="M94.2037 34.5645C94.2037 36.6861 93.6549 38.3631 92.5561 39.5942C91.5742 40.6901 90.3534 41.2374 88.8962 41.2374C87.3232 41.2374 86.1933 40.6472 85.5063 39.4668H85.4565V46.0383H82.8034V32.5872C82.8034 31.2534 82.7698 29.8845 82.7051 28.4805H85.0384L85.1865 30.4578H85.2363C86.1198 28.968 87.4626 28.2244 89.2658 28.2244C90.6733 28.2244 91.8493 28.8055 92.7926 29.969C93.7321 31.1338 94.2037 32.6652 94.2037 34.5645ZM91.5008 34.6659C91.5008 33.4517 91.2382 32.4507 90.7131 31.6629C90.1394 30.8413 89.3716 30.4305 88.4046 30.4305C87.7488 30.4305 87.1552 30.6593 86.6226 31.1104C86.09 31.5654 85.7428 32.1595 85.5797 32.8953C85.4989 33.2385 85.4565 33.5193 85.4565 33.7403V35.8203C85.4565 36.7277 85.7229 37.4934 86.253 38.1187C86.7856 38.7427 87.4775 39.056 88.3312 39.056C89.3305 39.056 90.1083 38.653 90.6646 37.8496C91.2221 37.0449 91.5008 35.9841 91.5008 34.6659Z" fill="white"/>
<path d="M109.56 36.1037C109.56 37.5753 109.071 38.7726 108.089 39.6969C107.01 40.707 105.508 41.2114 103.578 41.2114C101.796 41.2114 100.367 40.8526 99.2859 40.1337L99.9006 37.8236C101.065 38.5594 102.343 38.9286 103.736 38.9286C104.735 38.9286 105.513 38.692 106.072 38.2214C106.628 37.7508 106.906 37.119 106.906 36.3312C106.906 35.6292 106.677 35.0377 106.217 34.558C105.761 34.0783 104.998 33.6324 103.933 33.2203C101.033 32.0906 99.5846 30.4357 99.5846 28.2595C99.5846 26.8373 100.092 25.6712 101.109 24.7638C102.122 23.8551 103.473 23.4014 105.163 23.4014C106.67 23.4014 107.922 23.6757 108.922 24.223L108.258 26.4824C107.325 25.952 106.27 25.6868 105.089 25.6868C104.155 25.6868 103.426 25.9273 102.903 26.4057C102.462 26.8334 102.24 27.3547 102.24 27.9722C102.24 28.656 102.493 29.2215 103.001 29.6661C103.442 30.0769 104.245 30.5215 105.41 31.0012C106.835 31.6005 107.881 32.3012 108.555 33.1046C109.225 33.9054 109.56 34.9077 109.56 36.1037Z" fill="white"/>
<path d="M118.332 30.5604H115.408V36.6171C115.408 38.1576 115.923 38.9272 116.956 38.9272C117.43 38.9272 117.823 38.8843 118.134 38.7985L118.208 40.9032C117.685 41.1073 116.997 41.21 116.144 41.21C115.097 41.21 114.278 40.8759 113.687 40.209C113.098 39.5408 112.802 38.4202 112.802 36.8459V30.5578H111.06V28.4778H112.802V26.1937L115.408 25.3721V28.4778H118.332V30.5604Z" fill="white"/>
<path d="M131.527 34.6151C131.527 36.5326 131.002 38.1069 129.954 39.338C128.855 40.6055 127.397 41.2373 125.579 41.2373C123.826 41.2373 122.431 40.6302 121.391 39.416C120.351 38.2018 119.831 36.6691 119.831 34.8218C119.831 32.8887 120.366 31.3053 121.44 30.0742C122.511 28.8418 123.957 28.2256 125.775 28.2256C127.527 28.2256 128.937 28.8327 130.001 30.0482C131.019 31.2273 131.527 32.7496 131.527 34.6151ZM128.774 34.7048C128.774 33.5543 128.539 32.5676 128.063 31.7447C127.506 30.7489 126.711 30.2523 125.681 30.2523C124.614 30.2523 123.804 30.7502 123.248 31.7447C122.771 32.5689 122.536 33.5712 122.536 34.7568C122.536 35.9073 122.771 36.894 123.248 37.7156C123.822 38.7114 124.623 39.208 125.657 39.208C126.67 39.208 127.465 38.701 128.039 37.6896C128.528 36.8511 128.774 35.854 128.774 34.7048Z" fill="white"/>
<path d="M140.151 30.918C139.889 30.8673 139.609 30.8413 139.315 30.8413C138.382 30.8413 137.66 31.2092 137.152 31.9463C136.71 32.5963 136.489 33.4179 136.489 34.4098V40.9553H133.837L133.862 32.4091C133.862 30.9713 133.828 29.6622 133.762 28.4818H136.073L136.17 30.8686H136.244C136.524 30.0483 136.965 29.3879 137.57 28.8926C138.161 28.4467 138.8 28.2244 139.488 28.2244C139.733 28.2244 139.955 28.2426 140.151 28.2751V30.918Z" fill="white"/>
<path d="M152.017 34.1276C152.017 34.6242 151.986 35.0428 151.92 35.3847H143.96C143.991 36.6171 144.376 37.5596 145.115 38.2096C145.786 38.7907 146.653 39.0819 147.719 39.0819C148.897 39.0819 149.972 38.8856 150.939 38.4917L151.355 40.4157C150.225 40.9305 148.891 41.1866 147.351 41.1866C145.5 41.1866 144.046 40.6172 142.988 39.4797C141.933 38.3422 141.404 36.8147 141.404 34.8985C141.404 33.0174 141.896 31.4509 142.88 30.2016C143.911 28.8678 145.303 28.2009 147.055 28.2009C148.776 28.2009 150.079 28.8678 150.964 30.2016C151.665 31.2611 152.017 32.5715 152.017 34.1276ZM149.487 33.4087C149.504 32.5871 149.331 31.8773 148.972 31.278C148.513 30.5071 147.807 30.1223 146.857 30.1223C145.99 30.1223 145.284 30.498 144.746 31.252C144.304 31.8513 144.041 32.5702 143.96 33.4074H149.487V33.4087Z" fill="white"/>
<path d="M61.0402 13.0118C61.0402 14.5419 60.6009 15.6937 59.7236 16.4672C58.9109 17.1809 57.7561 17.5384 56.2603 17.5384C55.5186 17.5384 54.8839 17.5046 54.3525 17.437V9.0767C55.0457 8.9597 55.7924 8.8999 56.5988 8.8999C58.0237 8.8999 59.0976 9.2236 59.8219 9.871C60.6333 10.6029 61.0402 11.6494 61.0402 13.0118ZM59.6651 13.0495C59.6651 12.0576 59.4137 11.2971 58.9109 10.7667C58.4082 10.2376 57.674 9.9724 56.707 9.9724C56.2964 9.9724 55.9467 10.001 55.6567 10.0608V16.4165C55.8173 16.4425 56.1109 16.4542 56.5378 16.4542C57.5358 16.4542 58.3061 16.1643 58.8487 15.5845C59.3913 15.0047 59.6651 14.1597 59.6651 13.0495Z" fill="white"/>
<path d="M68.3313 14.3482C68.3313 15.2907 68.0737 16.0629 67.5585 16.6687C67.0184 17.2914 66.3029 17.6021 65.4093 17.6021C64.5482 17.6021 63.8625 17.3044 63.351 16.7064C62.8408 16.1097 62.5857 15.357 62.5857 14.4496C62.5857 13.5006 62.8483 12.7219 63.3759 12.1174C63.9036 11.5129 64.6129 11.21 65.5064 11.21C66.3676 11.21 67.0595 11.5077 67.5834 12.1044C68.0812 12.6842 68.3313 13.433 68.3313 14.3482ZM66.9786 14.3924C66.9786 13.8269 66.8616 13.342 66.6289 12.9377C66.3551 12.4489 65.9656 12.2045 65.4591 12.2045C64.9352 12.2045 64.537 12.4489 64.2632 12.9377C64.0292 13.342 63.9135 13.8347 63.9135 14.4171C63.9135 14.9826 64.0305 15.4675 64.2632 15.8718C64.5457 16.3606 64.9389 16.605 65.4467 16.605C65.9445 16.605 66.3352 16.3567 66.6165 15.8588C66.8579 15.4467 66.9786 14.9579 66.9786 14.3924Z" fill="white"/>
<path d="M78.1076 11.335L76.272 17.4632H75.0774L74.317 14.8021C74.1241 14.1378 73.9673 13.4774 73.8454 12.8222H73.8217C73.7085 13.4956 73.5517 14.1547 73.3501 14.8021L72.5424 17.4632H71.3341L69.608 11.335H70.9483L71.6116 14.2483C71.7721 14.9373 71.904 15.5938 72.0098 16.2152H72.0334C72.1305 15.703 72.291 15.0504 72.5175 14.2613L73.3501 11.3363H74.4128L75.2105 14.1989C75.4034 14.897 75.5602 15.5691 75.6809 16.2165H75.717C75.8054 15.586 75.9385 14.9139 76.1152 14.1989L76.827 11.3363H78.1076V11.335Z" fill="white"/>
<path d="M84.8687 17.463H83.5645V13.953C83.5645 12.8714 83.1713 12.3306 82.3823 12.3306C81.9953 12.3306 81.6829 12.4788 81.4403 12.7765C81.2001 13.0742 81.0781 13.4252 81.0781 13.8269V17.4617H79.774V13.0859C79.774 12.5477 79.7578 11.964 79.7267 11.3322H80.8728L80.9338 12.2903H80.9699C81.1217 11.9926 81.3482 11.7469 81.6456 11.5506C81.999 11.3218 82.3948 11.2061 82.8278 11.2061C83.3754 11.2061 83.8308 11.3907 84.193 11.7612C84.6435 12.2149 84.8687 12.8922 84.8687 13.7918V17.463Z" fill="white"/>
<path d="M88.4653 17.463H87.1624V8.52295H88.4653V17.463Z" fill="white"/>
<path d="M96.1436 14.3482C96.1436 15.2907 95.886 16.0629 95.3708 16.6687C94.8307 17.2914 94.1139 17.6021 93.2216 17.6021C92.3592 17.6021 91.6735 17.3044 91.1633 16.7064C90.6531 16.1097 90.3979 15.357 90.3979 14.4496C90.3979 13.5006 90.6605 12.7219 91.1882 12.1174C91.7158 11.5129 92.4252 11.21 93.3174 11.21C94.1798 11.21 94.8705 11.5077 95.3956 12.1044C95.8934 12.6842 96.1436 13.433 96.1436 14.3482ZM94.7896 14.3924C94.7896 13.8269 94.6726 13.342 94.4399 12.9377C94.1674 12.4489 93.7766 12.2045 93.2714 12.2045C92.7462 12.2045 92.348 12.4489 92.0755 12.9377C91.8415 13.342 91.7258 13.8347 91.7258 14.4171C91.7258 14.9826 91.8427 15.4675 92.0755 15.8718C92.3579 16.3606 92.7512 16.605 93.2589 16.605C93.7567 16.605 94.1462 16.3567 94.4275 15.8588C94.6701 15.4467 94.7896 14.9579 94.7896 14.3924Z" fill="white"/>
<path d="M102.456 17.463H101.284L101.187 16.7571H101.151C100.751 17.32 100.179 17.6021 99.4377 17.6021C98.884 17.6021 98.436 17.4162 98.0987 17.047C97.7926 16.7116 97.6395 16.2943 97.6395 15.799C97.6395 15.0502 97.9382 14.4795 98.5393 14.0843C99.1391 13.6891 99.9828 13.4954 101.069 13.5045V13.3901C101.069 12.5828 100.664 12.1798 99.8509 12.1798C99.2722 12.1798 98.762 12.3319 98.3215 12.6335L98.0564 11.7391C98.6015 11.3868 99.2747 11.21 100.069 11.21C101.602 11.21 102.371 12.055 102.371 13.745V16.0018C102.371 16.6141 102.4 17.1016 102.456 17.463ZM101.102 15.357V14.4119C99.663 14.3859 98.9437 14.798 98.9437 15.6469C98.9437 15.9667 99.0258 16.2059 99.1938 16.3658C99.3618 16.5257 99.5759 16.605 99.831 16.605C100.117 16.605 100.385 16.5101 100.629 16.3216C100.874 16.1318 101.024 15.8913 101.08 15.5962C101.094 15.5299 101.102 15.4493 101.102 15.357Z" fill="white"/>
<path d="M109.866 17.463H108.709L108.648 16.4789H108.611C108.242 17.2277 107.612 17.6021 106.727 17.6021C106.021 17.6021 105.432 17.3123 104.965 16.7324C104.499 16.1526 104.266 15.3999 104.266 14.4756C104.266 13.4837 104.518 12.6803 105.026 12.0667C105.518 11.4947 106.12 11.2087 106.837 11.2087C107.625 11.2087 108.176 11.4856 108.49 12.0407H108.514V8.52295H109.82V15.812C109.82 16.4087 109.835 16.9586 109.866 17.463ZM108.514 14.8786V13.8568C108.514 13.68 108.502 13.537 108.478 13.4278C108.405 13.1002 108.247 12.8246 108.007 12.6023C107.764 12.38 107.472 12.2682 107.134 12.2682C106.648 12.2682 106.267 12.4697 105.987 12.874C105.709 13.2783 105.569 13.7944 105.569 14.4249C105.569 15.0307 105.702 15.5221 105.97 15.9004C106.252 16.3034 106.633 16.5049 107.109 16.5049C107.538 16.5049 107.88 16.3372 108.14 16.0005C108.391 15.6898 108.514 15.3154 108.514 14.8786Z" fill="white"/>
<path d="M121.02 14.3482C121.02 15.2907 120.762 16.0629 120.247 16.6687C119.707 17.2914 118.993 17.6021 118.098 17.6021C117.238 17.6021 116.552 17.3044 116.04 16.7064C115.53 16.1097 115.274 15.357 115.274 14.4496C115.274 13.5006 115.537 12.7219 116.065 12.1174C116.592 11.5129 117.302 11.21 118.196 11.21C119.056 11.21 119.749 11.5077 120.272 12.1044C120.77 12.6842 121.02 13.433 121.02 14.3482ZM119.669 14.3924C119.669 13.8269 119.552 13.342 119.319 12.9377C119.044 12.4489 118.656 12.2045 118.148 12.2045C117.625 12.2045 117.227 12.4489 116.952 12.9377C116.718 13.342 116.602 13.8347 116.602 14.4171C116.602 14.9826 116.719 15.4675 116.952 15.8718C117.234 16.3606 117.628 16.605 118.135 16.605C118.633 16.605 119.025 16.3567 119.306 15.8588C119.547 15.4467 119.669 14.9579 119.669 14.3924Z" fill="white"/>
<path d="M128.032 17.463H126.729V13.953C126.729 12.8714 126.336 12.3306 125.546 12.3306C125.159 12.3306 124.846 12.4788 124.605 12.7765C124.364 13.0742 124.243 13.4252 124.243 13.8269V17.4617H122.938V13.0859C122.938 12.5477 122.923 11.964 122.891 11.3322H124.036L124.097 12.2903H124.133C124.287 11.9926 124.513 11.7469 124.809 11.5506C125.164 11.3218 125.558 11.2061 125.993 11.2061C126.539 11.2061 126.994 11.3907 127.357 11.7612C127.808 12.2149 128.032 12.8922 128.032 13.7918V17.463Z" fill="white"/>
<path d="M136.809 12.3553H135.373V15.3323C135.373 16.0889 135.628 16.4672 136.134 16.4672C136.368 16.4672 136.562 16.4464 136.715 16.4035L136.748 17.437C136.491 17.5384 136.152 17.5891 135.735 17.5891C135.22 17.5891 134.819 17.4253 134.53 17.0977C134.238 16.7701 134.094 16.2189 134.094 15.4454V12.3553H133.237V11.3348H134.094V10.2116L135.372 9.80859V11.3335H136.808V12.3553H136.809Z" fill="white"/>
<path d="M143.713 17.463H142.408V13.979C142.408 12.8805 142.015 12.3306 141.227 12.3306C140.622 12.3306 140.209 12.6491 139.983 13.2861C139.944 13.42 139.922 13.5838 139.922 13.7762V17.4618H138.619V8.52295H139.922V12.2162H139.946C140.357 11.5441 140.946 11.2087 141.709 11.2087C142.249 11.2087 142.695 11.3933 143.05 11.7638C143.492 12.2253 143.713 12.9117 143.713 13.8191V17.463Z" fill="white"/>
<path d="M150.835 14.1089C150.835 14.3533 150.818 14.5587 150.787 14.7264H146.876C146.893 15.3322 147.08 15.7937 147.442 16.1135C147.773 16.3995 148.2 16.5425 148.722 16.5425C149.301 16.5425 149.829 16.4463 150.304 16.2526L150.508 17.199C149.952 17.4512 149.297 17.5773 148.539 17.5773C147.631 17.5773 146.915 17.2978 146.398 16.7388C145.878 16.1798 145.62 15.4297 145.62 14.4885C145.62 13.5642 145.86 12.7946 146.344 12.181C146.85 11.5258 147.533 11.1982 148.395 11.1982C149.239 11.1982 149.88 11.5258 150.313 12.181C150.662 12.701 150.835 13.3445 150.835 14.1089ZM149.591 13.7566C149.601 13.3523 149.515 13.0039 149.338 12.7101C149.112 12.3318 148.767 12.142 148.301 12.142C147.875 12.142 147.528 12.3266 147.263 12.6971C147.046 12.9922 146.918 13.3445 146.876 13.7566H149.591Z" fill="white"/>
<path d="M34.1705 25.7191C34.1318 21.5292 37.6891 19.4908 37.8518 19.3959C35.8371 16.532 32.7145 16.1407 31.6171 16.1095C28.9945 15.8404 26.4505 17.6396 25.1145 17.6396C23.7518 17.6396 21.6945 16.1355 19.4771 16.1797C16.6238 16.2226 13.9545 17.8333 12.4905 20.3345C9.46912 25.4344 11.7225 32.9289 14.6171 37.0512C16.0651 39.0701 17.7571 41.3243 19.9718 41.245C22.1385 41.1579 22.9478 39.8982 25.5625 39.8982C28.1531 39.8982 28.9131 41.245 31.1718 41.1943C33.4971 41.1579 34.9611 39.1663 36.3585 37.1292C38.0318 34.8152 38.7038 32.5363 38.7305 32.4193C38.6758 32.4011 34.2145 30.741 34.1705 25.7191Z" fill="white"/>
<path d="M29.9038 13.3977C31.0691 11.9768 31.8665 10.0437 31.6451 8.08203C29.9585 8.15483 27.8491 9.21953 26.6345 10.6092C25.5598 11.8338 24.5998 13.841 24.8478 15.7286C26.7425 15.8664 28.6878 14.7965 29.9038 13.3977Z" fill="white"/>
</svg>
