<svg width="166" height="52" viewBox="0 0 166 52" fill="none" xmlns="http://www.w3.org/2000/svg">
<path d="M159.852 52H6.14815C2.7682 52 0 49.0734 0 45.5V6.5C0 2.92663 2.7682 2.74817e-06 6.14815 2.74817e-06H159.852C163.232 2.74817e-06 166 2.92663 166 6.5V45.5C166 49.0734 163.232 52 159.852 52Z" fill="black"/>
<path d="M159.852 1.04162C162.698 1.04162 165.015 3.4905 165.015 6.5V45.5C165.015 48.5095 162.698 50.9584 159.852 50.9584H6.14815C3.30156 50.9584 0.98524 48.5095 0.98524 45.5V6.5C0.98524 3.4905 3.30156 1.04162 6.14815 1.04162H159.852ZM159.852 2.74817e-06H6.14815C2.7682 2.74817e-06 0 2.92663 0 6.5V45.5C0 49.0734 2.7682 52 6.14815 52H159.852C163.232 52 166 49.0734 166 45.5V6.5C166 2.92663 163.232 2.74817e-06 159.852 2.74817e-06Z" fill="#A6A6A6"/>
<path d="M58.3061 13.3167C58.3061 14.4022 57.9987 15.2716 57.3931 15.9199C56.6968 16.6886 55.79 17.0753 54.6787 17.0753C53.6166 17.0753 52.7097 16.6821 51.9658 15.9069C51.2203 15.1204 50.8484 14.1552 50.8484 12.9998C50.8484 11.8444 51.2203 10.8792 51.9658 10.0992C52.7097 9.31757 53.6166 8.92432 54.6787 8.92432C55.2074 8.92432 55.7116 9.03969 56.1927 9.25419C56.6722 9.47032 57.0626 9.76282 57.3454 10.1236L56.703 10.8093C56.2096 10.1934 55.5379 9.88957 54.6787 9.88957C53.904 9.88957 53.2323 10.1756 52.6621 10.7524C52.098 11.3309 51.8152 12.0801 51.8152 12.9998C51.8152 13.9196 52.098 14.6752 52.6621 15.2537C53.2323 15.8241 53.904 16.1166 54.6787 16.1166C55.501 16.1166 56.1927 15.8241 56.7383 15.2472C57.098 14.8653 57.3024 14.3388 57.3562 13.6661H54.6787V12.7268H58.2508C58.2938 12.9299 58.3061 13.1266 58.3061 13.3167Z" fill="white" stroke="white" stroke-width="0.16" stroke-miterlimit="10"/>
<path d="M63.9728 10.0604H60.6175V12.5304H63.6424V13.4696H60.6175V15.9396H63.9728V16.8968H59.6676V9.10327H63.9728V10.0604Z" fill="white" stroke="white" stroke-width="0.16" stroke-miterlimit="10"/>
<path d="M67.9726 16.8968H67.0227V10.0604H64.9646V9.10327H70.0322V10.0604H67.9726V16.8968Z" fill="white" stroke="white" stroke-width="0.16" stroke-miterlimit="10"/>
<path d="M73.6995 16.8968V9.10327H74.6478V16.8968H73.6995Z" fill="white" stroke="white" stroke-width="0.16" stroke-miterlimit="10"/>
<path d="M78.8515 16.8968H77.9093V10.0604H75.8435V9.10327H80.9173V10.0604H78.8515V16.8968Z" fill="white" stroke="white" stroke-width="0.16" stroke-miterlimit="10"/>
<path d="M90.5113 15.8939C89.7843 16.6821 88.8836 17.0753 87.8092 17.0753C86.7287 17.0753 85.828 16.6821 85.101 15.8939C84.3755 15.1074 84.0143 14.1422 84.0143 12.9998C84.0143 11.8574 84.3755 10.8922 85.101 10.1057C85.828 9.31757 86.7287 8.92432 87.8092 8.92432C88.8775 8.92432 89.7782 9.31757 90.5052 10.1122C91.2368 10.9052 91.598 11.8639 91.598 12.9998C91.598 14.1422 91.2368 15.1074 90.5113 15.8939ZM85.8034 15.2407C86.3506 15.8241 87.0161 16.1166 87.8092 16.1166C88.5962 16.1166 89.2679 15.8241 89.8089 15.2407C90.3546 14.6573 90.6312 13.9082 90.6312 12.9998C90.6312 12.0914 90.3546 11.3423 89.8089 10.7589C89.2679 10.1756 88.5962 9.88307 87.8092 9.88307C87.0161 9.88307 86.3506 10.1756 85.8034 10.7589C85.2577 11.3423 84.9811 12.0914 84.9811 12.9998C84.9811 13.9082 85.2577 14.6573 85.8034 15.2407Z" fill="white" stroke="white" stroke-width="0.16" stroke-miterlimit="10"/>
<path d="M92.9309 16.8968V9.10327H94.0837L97.6681 15.1645H97.7096L97.6681 13.6663V9.10327H98.6164V16.8968H97.6266L93.8731 10.5365H93.8316L93.8731 12.0413V16.8968H92.9309Z" fill="white" stroke="white" stroke-width="0.16" stroke-miterlimit="10"/>
<path d="M83.7805 28.2783C80.8925 28.2783 78.5331 30.602 78.5331 33.8082C78.5331 36.9883 80.8925 39.3364 83.7805 39.3364C86.6748 39.3364 89.0341 36.9883 89.0341 33.8082C89.0341 30.602 86.6748 28.2783 83.7805 28.2783ZM83.7805 37.1589C82.1959 37.1589 80.8325 35.776 80.8325 33.8082C80.8325 31.8143 82.1959 30.4558 83.7805 30.4558C85.3652 30.4558 86.7347 31.8143 86.7347 33.8082C86.7347 35.776 85.3652 37.1589 83.7805 37.1589ZM72.3312 28.2783C69.4369 28.2783 67.0837 30.602 67.0837 33.8082C67.0837 36.9883 69.4369 39.3364 72.3312 39.3364C75.2239 39.3364 77.5786 36.9883 77.5786 33.8082C77.5786 30.602 75.2239 28.2783 72.3312 28.2783ZM72.3312 37.1589C70.7449 37.1589 69.377 35.776 69.377 33.8082C69.377 31.8143 70.7449 30.4558 72.3312 30.4558C73.9158 30.4558 75.2792 31.8143 75.2792 33.8082C75.2792 35.776 73.9158 37.1589 72.3312 37.1589ZM58.7069 29.9732V32.3229H64.0143C63.859 33.6359 63.444 34.6012 62.8077 35.2739C62.033 36.0864 60.8264 36.9883 58.7069 36.9883C55.4407 36.9883 52.883 34.2014 52.883 30.7483C52.883 27.2952 55.4407 24.5083 58.7069 24.5083C60.4729 24.5083 61.7579 25.2379 62.7062 26.1837L64.2725 24.5278C62.946 23.1888 61.1815 22.1602 58.7069 22.1602C54.2279 22.1602 50.4637 26.013 50.4637 30.7483C50.4637 35.4835 54.2279 39.3364 58.7069 39.3364C61.1277 39.3364 62.946 38.4979 64.3755 36.9249C65.8403 35.3763 66.2968 33.1988 66.2968 31.4405C66.2968 30.8945 66.2537 30.3924 66.1769 29.9732H58.7069ZM114.418 31.7948C113.986 30.5582 112.654 28.2783 109.939 28.2783C107.25 28.2783 105.01 30.5192 105.01 33.8082C105.01 36.9054 107.227 39.3364 110.198 39.3364C112.6 39.3364 113.986 37.7878 114.557 36.8859L112.774 35.6298C112.179 36.5495 111.369 37.1589 110.198 37.1589C109.034 37.1589 108.199 36.595 107.665 35.4835L114.66 32.4237L114.418 31.7948ZM107.286 33.6359C107.227 31.5039 108.853 30.4119 110.018 30.4119C110.931 30.4119 111.705 30.8945 111.964 31.5852L107.286 33.6359ZM101.601 39H103.9V22.75H101.601V39ZM97.8352 29.51H97.7584C97.2419 28.8633 96.2567 28.2783 95.0086 28.2783C92.3895 28.2783 89.9948 30.7093 89.9948 33.826C89.9948 36.9249 92.3895 39.3364 95.0086 39.3364C96.2567 39.3364 97.2419 38.7465 97.7584 38.0803H97.8352V38.8733C97.8352 40.9874 96.767 42.1233 95.0439 42.1233C93.6391 42.1233 92.7676 41.0508 92.4079 40.1489L90.4082 41.0313C90.9846 42.497 92.5109 44.3008 95.0439 44.3008C97.7399 44.3008 100.015 42.6238 100.015 38.5434V28.6147H97.8352V29.51ZM95.2053 37.1589C93.6207 37.1589 92.2942 35.7565 92.2942 33.826C92.2942 31.8777 93.6207 30.4558 95.2053 30.4558C96.767 30.4558 97.9981 31.8777 97.9981 33.826C97.9981 35.7565 96.767 37.1589 95.2053 37.1589ZM125.184 22.75H119.684V39H121.977V32.8429H125.184C127.731 32.8429 130.228 30.8945 130.228 27.7957C130.228 24.6984 127.724 22.75 125.184 22.75ZM125.244 30.5825H121.977V25.0104H125.244C126.956 25.0104 127.933 26.5135 127.933 27.7957C127.933 29.0534 126.956 30.5825 125.244 30.5825ZM139.42 28.2474C137.763 28.2474 136.04 29.0209 135.331 30.7353L137.366 31.6372C137.804 30.7353 138.61 30.4428 139.461 30.4428C140.651 30.4428 141.857 31.1984 141.876 32.5325V32.7032C141.461 32.4497 140.573 32.0743 139.48 32.0743C137.288 32.0743 135.055 33.3499 135.055 35.7305C135.055 37.908 136.85 39.3104 138.868 39.3104C140.411 39.3104 141.263 38.5743 141.798 37.7179H141.876V38.974H144.091V32.7405C144.091 29.8594 142.056 28.2474 139.42 28.2474ZM139.143 37.1524C138.393 37.1524 137.348 36.7592 137.348 35.776C137.348 34.5183 138.651 34.0357 139.779 34.0357C140.789 34.0357 141.263 34.2713 141.876 34.5817C141.696 36.0864 140.471 37.1524 139.143 37.1524ZM152.16 28.6033L149.524 35.6477H149.446L146.721 28.6033H144.248L148.342 38.4475L146.006 43.9254H148.402L154.712 28.6033H152.16ZM131.489 39H133.788V22.75H131.489V39Z" fill="white"/>
<path d="M13.8943 5.8002C13.5032 6.19995 13.2769 6.82233 13.2769 7.62833V36.3778C13.2769 37.1838 13.5032 37.8062 13.8943 38.2059L13.9909 38.2937L30.4915 22.19V21.8097L13.9909 5.70595L13.8943 5.8002Z" fill="url(#paint0_linear)"/>
<path d="M35.9853 27.5605L30.4912 22.1899V21.8097L35.992 16.439L36.1151 16.5089L42.6295 20.1278C44.4886 21.1548 44.4886 22.8448 42.6295 23.8783L36.1151 27.4907L35.9853 27.5605Z" fill="url(#paint1_linear)"/>
<path d="M36.1151 27.4907L30.4912 21.9998L13.894 38.206C14.5115 38.8397 15.5185 38.9161 16.6636 38.2823L36.1151 27.4907Z" fill="url(#paint2_linear)"/>
<path d="M36.1151 16.5091L16.6636 5.71751C15.5185 5.09025 14.5115 5.16663 13.894 5.80038L30.4912 22L36.1151 16.5091Z" fill="url(#paint3_linear)"/>
<defs>
<linearGradient id="paint0_linear" x1="29.0264" y1="36.6772" x2="7.21556" y2="14.3379" gradientUnits="userSpaceOnUse">
<stop stop-color="#00A0FF"/>
<stop offset="0.0066" stop-color="#00A1FF"/>
<stop offset="0.2601" stop-color="#00BEFF"/>
<stop offset="0.5122" stop-color="#00D2FF"/>
<stop offset="0.7604" stop-color="#00DFFF"/>
<stop offset="1" stop-color="#00E3FF"/>
</linearGradient>
<linearGradient id="paint1_linear" x1="45.0504" y1="21.998" x2="12.8322" y2="21.998" gradientUnits="userSpaceOnUse">
<stop stop-color="#FFE000"/>
<stop offset="0.4087" stop-color="#FFBD00"/>
<stop offset="0.7754" stop-color="#FFA500"/>
<stop offset="1" stop-color="#FF9C00"/>
</linearGradient>
<linearGradient id="paint2_linear" x1="33.057" y1="19.0149" x2="3.47969" y2="-11.2791" gradientUnits="userSpaceOnUse">
<stop stop-color="#FF3A44"/>
<stop offset="1" stop-color="#C31162"/>
</linearGradient>
<linearGradient id="paint3_linear" x1="9.71619" y1="47.7709" x2="22.9238" y2="34.2434" gradientUnits="userSpaceOnUse">
<stop stop-color="#32A071"/>
<stop offset="0.0685" stop-color="#2DA771"/>
<stop offset="0.4762" stop-color="#15CF74"/>
<stop offset="0.8009" stop-color="#06E775"/>
<stop offset="1" stop-color="#00F076"/>
</linearGradient>
</defs>
</svg>
